<?xml version="1.0" ?><svg id="Layer_1_1_" style="enable-background:new 0 0 64 64;" version="1.1" viewBox="0 0 64 64" xml:space="preserve" xmlns="http://www.w3.org/2000/svg" xmlns:xlink="http://www.w3.org/1999/xlink"><g><g><circle cx="32" cy="32" r="24" style="fill:#00F4CB;"/></g><g><path d="M62.447,22.105c-0.496-0.245-1.095-0.046-1.342,0.447l-1.75,3.499C56.597,13.361,45.152,4,32,4    C20.965,4,10.926,10.513,6.424,20.592c-0.225,0.505,0.001,1.096,0.505,1.321c0.502,0.226,1.095-0.002,1.321-0.505    C12.431,12.048,21.753,6,32,6c12.192,0,22.79,8.667,25.375,20.419l-2.75-2.2c-0.43-0.345-1.061-0.273-1.405,0.156    c-0.345,0.432-0.275,1.061,0.156,1.406l5,4C58.554,29.924,58.775,30,59,30c0.071,0,0.144-0.008,0.214-0.023    c0.295-0.064,0.545-0.259,0.68-0.529l3-6C63.142,22.953,62.941,22.353,62.447,22.105z"/><path d="M26,32.181l-5.662,1.132c-2.543,0.509-4.587,2.368-5.332,4.853l-1.964,6.548c-0.091,0.303-0.033,0.631,0.156,0.884    C13.386,45.851,13.684,46,14,46h36c0.316,0,0.614-0.149,0.802-0.403c0.189-0.253,0.247-0.581,0.156-0.884l-1.964-6.548    c-0.745-2.484-2.789-4.344-5.332-4.853L38,32.181V31c0-0.006-0.003-0.011-0.003-0.017C40.422,29.157,42,26.263,42,23v-4    c0-5.514-4.486-10-10-10s-10,4.486-10,10v4c0,3.263,1.578,6.157,4.003,7.983C26.003,30.989,26,30.994,26,31V32.181z     M43.269,35.273c1.817,0.364,3.276,1.692,3.809,3.466L48.656,44H15.344l1.578-5.261c0.532-1.773,1.992-3.102,3.809-3.466    l5.718-1.144C27.104,35.216,28.68,37,32,37s4.896-1.784,5.551-2.87L43.269,35.273z M24,23v-4c0-4.411,3.589-8,8-8s8,3.589,8,8v4    c0,4.411-3.589,8-8,8S24,27.411,24,23z M32,33c1.422,0,2.774-0.303,4-0.841v0.647C35.783,33.282,34.808,35,32,35    c-2.788,0-3.774-1.705-4-2.196v-0.645C29.226,32.697,30.578,33,32,33z"/><path d="M34,25H30c-0.552,0-1-0.448-1-1c0-0.553-0.448-1-1-1s-1,0.447-1,1c0,1.654,1.346,3,3,3h1v1c0,0.553,0.448,1,1,1    s1-0.447,1-1v-1h1c1.654,0,3-1.346,3-3v-1c0-1.654-1.346-3-3-3H30c-0.552,0-1-0.448-1-1v-1c0-0.552,0.449-1,1-1H34    c0.552,0,1,0.448,1,1c0,0.553,0.448,1,1,1s1-0.447,1-1c0-1.654-1.346-3-3-3h-1v-1c0-0.553-0.448-1-1-1s-1,0.447-1,1v1h-1    c-1.654,0-3,1.346-3,3v1c0,1.654,1.346,3,3,3H34c0.552,0,1,0.448,1,1v1C35,24.552,34.551,25,34,25z"/><circle cx="5" cy="28" r="1"/><circle cx="59" cy="36" r="1"/><circle cx="58" cy="39.399" r="1"/><path d="M57.07,42.087c-0.504-0.227-1.096,0.002-1.321,0.505C51.569,51.952,42.247,58,32,58C19.808,58,9.21,49.333,6.625,37.581    l2.75,2.2c0.431,0.344,1.06,0.274,1.405-0.156c0.345-0.432,0.275-1.061-0.156-1.406l-5-4c-0.235-0.188-0.544-0.26-0.839-0.195    s-0.545,0.259-0.68,0.529l-3,6c-0.247,0.494-0.047,1.095,0.447,1.342C1.696,41.966,1.849,42,1.999,42    c0.367,0,0.72-0.202,0.896-0.553l1.75-3.499C7.403,50.639,18.848,60,32,60c11.035,0,21.074-6.513,25.576-16.592    C57.801,42.903,57.575,42.312,57.07,42.087z"/><circle cx="6" cy="24.601" r="1"/></g></g></svg>